#!OML:ASF F:\VICON\USERDATA\INSTALL\rory3\rory3.ASF
:FULLY-SPECIFIED
:DEGREES
576
root -14.8988 17.9868 7.26008 8.61697 7.51268 2.95694
lowerback 5.87725 1.50014 2.27989
upperback 3.57715 2.11164 1.64515
thorax 0.409111 1.07639 0.298584
lowerneck -6.3381 3.02562 -3.72263
upperneck 33.4301 6.00762 -2.14637
head 11.993 2.0747 0.567659
rclavicle -1.78906e-014 -2.70347e-014
rhumerus -31.7634 -0.447213 -78.5842
rradius 31.0814
rwrist -8.63895
rhand -13.1971 16.3748
rfingers 7.12502
rthumb 12.9032 -13.2063
lclavicle -1.78906e-014 -2.70347e-014
lhumerus -34.0576 -2.24449 81.3271
lradius 32.4421
lwrist 12.8603
lhand -5.13453 27.3016
lfingers 7.12502
lthumb 20.6641 56.2216
rfemur -23.1942 2.44933 19.2472
rtibia 27.3826
rfoot -14.4243 -12.0831
rtoes -2.56654
lfemur -20.7613 -3.11125 -23.0294
ltibia 32.8355
lfoot -20.3732 7.61872
ltoes -15.6841
577
root -14.9485 17.9869 7.26045 8.72632 8.53357 3.01893
lowerback 5.83542 1.45111 2.22809
upperback 3.5949 2.0435 1.71528
thorax 0.445366 1.04173 0.40458
lowerneck -6.35173 3.05338 -3.83816
upperneck 33.3543 6.05842 -2.08403
head 11.9585 2.09768 0.617261
rclavicle 4.05521e-014 1.59028e-014
rhumerus -31.7249 -0.517175 -78.458
rradius 31.0226
rwrist -8.31368
rhand -12.8998 16.0708
rfingers 7.12502
rthumb 13.1898 -13.4919
lclavicle 4.05521e-014 1.59028e-014
lhumerus -34.0332 -2.28717 81.5149
lradius 33.0067
lwrist 12.9961
lhand -5.27074 27.1599
lfingers 7.12502
lthumb 20.5333 56.094
rfemur -23.198 2.11825 19.3797
rtibia 27.4074
rfoot -14.5634 -12.5437
rtoes -0.674213
lfemur -20.9421 -2.19382 -23.3963
ltibia 33.4383
lfoot -20.6022 8.29217
ltoes -14.3946
578
root -14.9992 17.9898 7.26558 8.86823 9.57393 3.18474
lowerback 5.72347 1.40509 2.07334
upperback 3.61677 1.9721 1.74483
thorax 0.522813 1.00449 0.528569
lowerneck -6.36816 3.09925 -3.87861
upperneck 33.3148 6.13709 -2.06043
head 11.9431 2.13667 0.643078
rclavicle -2.82274e-014 1.74931e-014
rhumerus -31.6319 -0.560211 -78.3893
rradius 30.8123
rwrist -8.07053
rhand -12.7397 15.9805
rfingers 7.12502
rthumb 13.3441 -13.5723
lclavicle -2.82274e-014 1.74931e-014
lhumerus -33.8794 -1.93983 81.5539
lradius 33.3659
lwrist 12.7046
lhand -5.32837 27.0094
lfingers 7.12502
lthumb 20.4779 55.9495
rfemur -23.2017 1.75002 19.41
rtibia 27.4499
rfoot -14.6896 -13.1166
rtoes -0.368448
lfemur -21.1228 -1.31778 -23.8541
ltibia 34.0332
lfoot -20.7676 8.77439
ltoes -13.6675
579
root -15.0521 17.9909 7.27131 9.01756 10.7046 3.27035
lowerback 5.59749 1.33599 1.95804
upperback 3.61722 1.87242 1.82227
thorax 0.586166 0.953009 0.680828
lowerneck -6.37334 3.13478 -3.95473
upperneck 33.2778 6.19998 -2.01473
head 11.9245 2.16714 0.681182
rclavicle 4.17448e-014 0
rhumerus -31.5452 -0.488028 -78.3138
rradius 30.5822
rwrist -8.0481
rhand -12.7871 16.0933
rfingers 7.12502
rthumb 13.2984 -13.4625
lclavicle 4.17448e-014 0
lhumerus -33.7998 -2.07361 81.7879
lradius 33.8146
lwrist 12.8271
lhand -5.4006 26.8171
lfingers 7.12502
lthumb 20.4085 55.7646
rfemur -23.2 1.48941 19.5381
rtibia 27.5017
rfoot -14.84 -13.8434
rtoes 0.228753
lfemur -21.2929 -0.421029 -24.2127
ltibia 34.6072
lfoot -20.6559 9.22062
ltoes -14.2811
580
root -15.1043 17.9901 7.2788 9.08036 11.867 3.32608
lowerback 5.53581 1.25663 1.89638
upperback 3.63267 1.76338 1.89577
thorax 0.631836 0.897672 0.79787
lowerneck -6.12453 3.13519 -3.76548
upperneck 32.9337 6.22501 -2.29037
head 11.7512 2.18831 0.539925
rclavicle 3.18055e-015 -2.70347e-014
rhumerus -31.5354 -0.796945 -78.1422
rradius 30.5131
rwrist -7.71042
rhand -12.7291 16.1867
rfingers 7.12502
rthumb 13.3543 -13.3653
lclavicle 3.18055e-015 -2.70347e-014
lhumerus -33.8329 -2.57045 82.1029
lradius 34.4982
lwrist 13.2826
lhand -5.46603 26.5087
lfingers 7.12502
lthumb 20.3456 55.463
rfemur -23.116 1.20024 19.7106
rtibia 27.5598
rfoot -14.9513 -14.6858
rtoes -0.676085
lfemur -21.3322 0.508812 -24.5548
ltibia 35.1666
lfoot -20.3308 9.97359
ltoes -17.2039
581
root -15.1544 17.9939 7.28793 9.04987 13.0195 3.38435
lowerback 5.58499 1.17646 1.85054
upperback 3.66492 1.65712 1.9527
thorax 0.634736 0.843995 0.886462
lowerneck -6.00745 3.17291 -3.68119
upperneck 32.7035 6.28908 -2.40582
head 11.6416 2.22739 0.485567
rclavicle -1.78906e-014 0
rhumerus -31.6144 -1.42481 -77.9147
rradius 30.6138
rwrist -7.03432
rhand -12.648 16.1154
rfingers 7.12502
rthumb 13.4325 -13.4315
lclavicle -1.78906e-014 0
lhumerus -33.883 -2.80638 82.2648
lradius 35.2445
lwrist 13.4695
lhand -5.13591 26.2954
lfingers 7.12502
lthumb 20.6628 55.2155
rfemur -22.9465 0.960183 19.8478
rtibia 27.6058
rfoot -15.2487 -15.4591
rtoes -0.85471
lfemur -21.2478 1.38839 -24.863
ltibia 35.7335
lfoot -20.1694 10.5304
ltoes -19.4149
582
root -15.2003 17.9972 7.29214 9.08764 14.073 3.38809
lowerback 5.59942 1.15996 1.92381
upperback 3.63273 1.64078 1.96563
thorax 0.59536 0.837051 0.858701
lowerneck -5.91129 3.20297 -3.61898
upperneck 32.6104 6.31352 -2.37414
head 11.5844 2.25918 0.486932
rclavicle 4.01545e-014 -2.38542e-014
rhumerus -31.7663 -1.90765 -77.7887
rradius 30.6052
rwrist -6.58997
rhand -12.7495 16.1843
rfingers 7.12502
rthumb 13.3346 -13.369
lclavicle 4.01545e-014 -2.38542e-014
lhumerus -33.9742 -3.04875 82.4109
lradius 35.9906
lwrist 13.7471
lhand -4.93384 26.368
lfingers 7.12502
lthumb 20.857 55.2669
rfemur -22.9206 0.570778 20.0591
rtibia 27.6635
rfoot -15.6342 -15.7843
rtoes 1.48119
lfemur -21.2832 2.2431 -25.1105
ltibia 36.2851
lfoot -20.0295 10.8689
ltoes -19.8464
583
root -15.239 17.9961 7.2899 9.15573 15.0528 3.33685
lowerback 5.59376 1.21008 2.16811
upperback 3.55377 1.72067 1.92418
thorax 0.525912 0.880807 0.674488
lowerneck -5.69207 3.19212 -3.41913
upperneck 32.5019 6.24752 -2.33977
head 11.4999 2.26994 0.452424
rclavicle 1.03368e-014 -9.54166e-015
rhumerus -31.9939 -2.16531 -77.7465
rradius 30.5535
rwrist -6.65334
rhand -12.8926 16.2155
rfingers 7.12502
rthumb 13.1968 -13.3468
lclavicle 1.03368e-014 -9.54166e-015
lhumerus -34.0354 -3.62476 82.6669
lradius 36.6546
lwrist 14.4869
lhand -5.16668 26.4733
lfingers 7.12502
lthumb 20.6333 55.3966
rfemur -22.9743 0.0034389 20.337
rtibia 27.7117
rfoot -15.6392 -16.0549
rtoes 2.44015
lfemur -21.3845 3.05282 -25.3447
ltibia 36.822
lfoot -19.8616 11.2313
ltoes -19.7452
584
root -15.281 17.9927 7.29094 9.23449 16.0857 3.35136
lowerback 5.56127 1.24389 2.28106
upperback 3.50729 1.77153 1.92089
thorax 0.500001 0.90795 0.605518
lowerneck -5.53267 3.18589 -3.25437
upperneck 32.3678 6.2228 -2.38894
head 11.4205 2.285 0.399169
rclavicle 2.78299e-015 -5.08889e-014
rhumerus -32.1131 -2.272 -77.6366
rradius 30.4945
rwrist -6.81216
rhand -12.9683 16.0155
rfingers 7.12502
rthumb 13.1237 -13.5515
lclavicle 2.78299e-015 -5.08889e-014
lhumerus -34.1177 -4.26126 83.0167
lradius 37.4372
lwrist 15.1815
lhand -5.38795 26.4178
lfingers 7.12502
lthumb 20.4206 55.364
rfemur -22.9965 -0.414625 20.5352
rtibia 27.7771
rfoot -15.5992 -16.6707
rtoes 2.06839
lfemur -21.4568 3.81249 -25.6152
ltibia 37.3305
lfoot -19.7384 11.6069
ltoes -20.061
585
root -15.3277 17.9901 7.29695 9.30198 17.1701 3.3859
lowerback 5.52695 1.26111 2.31697
upperback 3.46323 1.79684 1.91534
thorax 0.475162 0.921165 0.578616
lowerneck -5.48659 3.21499 -3.14766
upperneck 32.3937 6.22742 -2.27501
head 11.4189 2.31861 0.423329
rclavicle 7.59357e-014 7.95139e-015
rhumerus -32.2118 -2.6113 -77.4987
rradius 30.3945
rwrist -6.67587
rhand -12.8668 15.8062
rfingers 7.12502
rthumb 13.2216 -13.7545
lclavicle 7.59357e-014 7.95139e-015
lhumerus -34.2552 -4.75968 83.2797
lradius 38.282
lwrist 15.4892
lhand -5.04766 26.4628
lfingers 7.12502
lthumb 20.7476 55.3737
rfemur -22.9887 -0.693193 20.7043
rtibia 27.8714
rfoot -15.8286 -17.3302
rtoes 2.29756
lfemur -21.4808 4.55395 -25.8461
ltibia 37.808
lfoot -19.6272 11.8719
ltoes -20.5087
586
root -15.3716 17.9881 7.30224 9.37494 18.2657 3.49423
lowerback 5.49975 1.26899 2.30493
upperback 3.41035 1.80785 1.86336
thorax 0.437112 0.926731 0.531211
lowerneck -5.38208 3.25786 -2.92798
upperneck 32.4089 6.23971 -2.19654
head 11.4059 2.3661 0.41426
rclavicle -5.64548e-014 6.36111e-015
rhumerus -32.3753 -3.11082 -77.377
rradius 30.2494
rwrist -6.41461
rhand -12.6991 15.7546
rfingers 7.12502
rthumb 13.3832 -13.7956
lclavicle -5.64548e-014 6.36111e-015
lhumerus -34.4833 -5.27823 83.5329
lradius 39.1999
lwrist 15.7164
lhand -4.42115 26.5076
lfingers 7.12502
lthumb 21.3495 55.3515
rfemur -22.9588 -1.17175 20.8112
rtibia 27.9244
rfoot -16.0518 -17.7879
rtoes 2.62692
lfemur -21.4558 5.28247 -26.1442
ltibia 38.2441
lfoot -19.7692 12.0168
ltoes -19.9248
587
root -15.4119 17.9861 7.30765 9.4824 19.3552 3.61378
lowerback 5.42457 1.2482 2.2601
upperback 3.37329 1.77732 1.84846
thorax 0.439489 0.91113 0.543706
lowerneck -5.25911 3.32938 -2.78358
upperneck 32.3014 6.31152 -2.17192
head 11.3411 2.42839 0.402831
rclavicle -3.77691e-014 -1.74931e-014
rhumerus -32.492 -3.40294 -77.2715
rradius 30.1149
rwrist -6.33456
rhand -12.6282 15.8003
rfingers 7.12502
rthumb 13.4516 -13.7453
lclavicle -3.77691e-014 -1.74931e-014
lhumerus -34.7739 -6.08048 83.941
lradius 40.3379
lwrist 16.4077
lhand -4.3046 26.7025
lfingers 7.12502
lthumb 21.4614 55.5337
rfemur -22.9352 -1.84168 20.9285
rtibia 27.8922
rfoot -16.1173 -18.1201
rtoes 2.79066
lfemur -21.3953 6.04541 -26.4802
ltibia 38.6487
lfoot -20.1319 11.8467
ltoes -17.7327
588
root -15.4522 17.9911 7.31632 9.55223 20.459 3.55562
lowerback 5.29978 1.26208 2.4179
upperback 3.37609 1.79882 1.8538
thorax 0.516867 0.92513 0.46328
lowerneck -5.27072 3.37163 -2.66164
upperneck 32.1751 6.33865 -2.10942
head 11.2934 2.4699 0.407398
rclavicle 4.6118e-014 2.70347e-014
rhumerus -32.5081 -3.74199 -77.209
rradius 29.9522
rwrist -6.28745
rhand -12.6311 15.7869
rfingers 7.12502
rthumb 13.4488 -13.7589
lclavicle 4.6118e-014 2.70347e-014
lhumerus -34.7631 -7.00952 84.3041
lradius 41.2014
lwrist 17.0477
lhand -4.51064 26.9659
lfingers 7.12502
lthumb 21.2635 55.8195
rfemur -22.8642 -2.23022 21.1695
rtibia 27.7962
rfoot -16.3384 -18.4981
rtoes 4.23888
lfemur -21.3314 6.64372 -26.6051
ltibia 39.0264
lfoot -20.6225 11.7327
ltoes -15.6581
589
root -15.4943 17.9988 7.32435 9.56481 21.5504 3.39846
lowerback 5.21707 1.24864 2.634
upperback 3.37075 1.78798 1.88415
thorax 0.563367 0.923471 0.376304
lowerneck -5.09448 3.45713 -2.22763
upperneck 31.8823 6.45761 -2.38821
head 11.168 2.55703 0.237158
rclavicle 5.1684e-015 4.77083e-015
rhumerus -32.5344 -4.12437 -77.1623
rradius 29.8229
rwrist -6.0854
rhand -12.5762 15.7617
rfingers 7.12502
rthumb 13.5017 -13.7806
lclavicle 5.1684e-015 4.77083e-015
lhumerus -34.6557 -7.58055 84.532
lradius 41.762
lwrist 17.3331
lhand -4.39779 27.0394
lfingers 7.12502
lthumb 21.3719 55.8807
rfemur -22.7493 -2.59233 21.54
rtibia 27.6502
rfoot -16.9301 -18.9564
rtoes 6.48339
lfemur -21.2937 7.14606 -26.5915
ltibia 39.3631
lfoot -20.9001 12.3701
ltoes -17.4861
590
root -15.5356 17.9988 7.33175 9.58467 22.6257 3.2813
lowerback 5.15826 1.18814 2.7395
upperback 3.32163 1.7122 1.97369
thorax 0.545126 0.886357 0.413283
lowerneck -4.36672 3.59351 -1.50903
upperneck 31.1331 6.68401 -3.12225
head 10.7887 2.6954 -0.152267
rclavicle 1.78906e-014 2.70347e-014
rhumerus -32.6226 -4.26507 -77.0702
rradius 29.7588
rwrist -5.89744
rhand -12.4993 15.7783
rfingers 7.12502
rthumb 13.5758 -13.7591
lclavicle 1.78906e-014 2.70347e-014
lhumerus -34.7201 -7.75503 84.8132
lradius 42.3588
lwrist 17.5414
lhand -4.26721 27.0695
lfingers 7.12502
lthumb 21.4973 55.8966
rfemur -22.6515 -2.97464 21.8736
rtibia 27.4888
rfoot -17.2874 -19.5154
rtoes 7.58182
lfemur -21.2403 7.78805 -26.6372
ltibia 39.6469
lfoot -20.7815 13.3418
ltoes -20.7389
